<?xml version="1.0" encoding="UTF-8"?>
<svg version="1.1" xmlns="http://www.w3.org/2000/svg" width="2129" height="1529">
<path d="M0 0 C1.15967285 0.20399414 2.3193457 0.40798828 3.51416016 0.61816406 C49.96807968 9.0576306 95.23188325 25.66901464 134 53 C134.55204102 53.38365723 135.10408203 53.76731445 135.67285156 54.16259766 C143.74636709 59.77402456 151.48049623 65.65673146 159 72 C160.47726562 73.19882813 160.47726562 73.19882813 161.984375 74.421875 C170.02331604 81.02463327 177.44466033 88.23034637 184.8125 95.5625 C185.54430481 96.28654022 185.54430481 96.28654022 186.29089355 97.02520752 C192.99161503 103.66981235 199.12516329 110.61417725 205 118 C205.98811004 119.18570155 206.97972134 120.36850437 207.9765625 121.546875 C221.34040957 137.58992355 232.33271457 155.52803504 242 174 C242.3511084 174.66515625 242.7022168 175.3303125 243.06396484 176.015625 C265.1963776 218.18446018 278.97174913 266.85979702 279.203125 314.625 C279.21364647 316.09052811 279.21364647 316.09052811 279.22438049 317.58566284 C279.2417893 320.7238227 279.24823357 323.86179361 279.25 327 C279.25101212 328.6111972 279.25101212 328.6111972 279.25204468 330.25494385 C279.23563751 346.69982859 278.71339768 362.74608611 276 379 C275.82839355 380.06154297 275.65678711 381.12308594 275.47998047 382.21679688 C265.61684887 441.76578442 240.0959826 498.66875085 200 544 C199.25363281 544.845625 198.50726562 545.69125 197.73828125 546.5625 C195.51018355 549.05860945 193.25769729 551.53064359 191 554 C190.04144717 555.06360431 189.08312664 556.127418 188.125 557.19140625 C182.07208933 563.8773647 175.84766061 570.11341457 169 576 C167.9420713 576.93156873 166.88481794 577.86390477 165.828125 578.796875 C99.9362933 636.59905398 12.55722579 664.93983853 -74.67773438 659.484375 C-97.56074924 657.83910131 -119.84267401 653.89907727 -142 648 C-142.86786133 647.77086914 -143.73572266 647.54173828 -144.62988281 647.30566406 C-186.55348266 636.03552739 -225.13156095 614.88389714 -259 588 C-259.92167969 587.27296875 -260.84335938 586.5459375 -261.79296875 585.796875 C-277.66634569 573.06152496 -291.77649658 558.36043694 -306.12646317 543.97493076 C-309.116802 540.97827037 -312.11004063 537.9845091 -315.10295105 534.99041748 C-320.74984007 529.34044078 -326.39417887 523.68792373 -332.03756779 518.03445125 C-338.47104967 511.58972789 -344.90742743 505.14789992 -351.34403002 498.70629358 C-364.56587361 485.47404376 -377.78414128 472.23822715 -391 459 C-395.70926576 462.93163893 -400.16246077 467.02399268 -404.4801178 471.38005066 C-405.09283726 471.99403239 -405.70555672 472.60801412 -406.33684343 473.24060136 C-408.37157072 475.28066862 -410.40268111 477.32429821 -412.43383789 479.36791992 C-413.89958142 480.83886178 -415.36557102 482.30955848 -416.83178711 483.7800293 C-419.98145209 486.93960985 -423.12964701 490.10064535 -426.27678108 493.26274681 C-431.2636909 498.27280735 -436.25555351 503.27791313 -441.24839783 508.28205872 C-455.44328998 522.51030872 -469.63407518 536.74263611 -483.81420898 550.9855957 C-491.65167731 558.85770495 -499.49458873 566.72434906 -507.34347719 574.58507234 C-511.48952585 578.73785981 -515.63273342 582.89339482 -519.76915169 587.0557766 C-523.66559426 590.97667627 -527.56911938 594.89038734 -531.47792816 598.79895782 C-532.9018266 600.22525547 -534.32318916 601.65409056 -535.74164391 603.08580208 C-546.51693155 613.95747671 -557.71751083 624.22222828 -570.875 632.1875 C-571.53516113 632.59202393 -572.19532227 632.99654785 -572.87548828 633.41333008 C-614.89858894 658.74361725 -663.69646759 665.93353445 -711.4140625 654.4609375 C-740.41413815 647.06367208 -766.35237253 632.61847797 -788 612 C-789.55493738 610.61645348 -791.11672263 609.24053642 -792.6875 607.875 C-793.65236328 607.03582031 -793.65236328 607.03582031 -794.63671875 606.1796875 C-795.31154297 605.59574219 -795.31154297 605.59574219 -796 605 C-795.41834456 601.41547333 -794.12183432 599.74711985 -791.57639974 597.20265359 C-790.83655898 596.45581471 -790.09671821 595.70897584 -789.33445802 594.93950549 C-788.51152957 594.12417223 -787.68860112 593.30883897 -786.84073544 592.46879864 C-785.53579859 591.1582201 -785.53579859 591.1582201 -784.20449939 589.82116523 C-781.77461398 587.38384529 -779.33813165 584.95347135 -776.89871382 582.52571387 C-774.25156596 579.88794436 -771.61310229 577.24151304 -768.97354752 574.59614927 C-764.34154559 569.95637283 -759.70396974 565.32222621 -755.06274796 560.69167328 C-748.16099834 553.80574506 -741.26782606 546.91127865 -734.37639376 540.0150268 C-722.78289143 528.41392502 -711.18233131 516.81990482 -699.57769585 505.22994041 C-688.07880548 493.74557033 -676.58279778 482.25832798 -665.09071541 470.76714516 C-664.37659021 470.05308105 -663.66246501 469.33901694 -662.92669965 468.60331453 C-660.02799266 465.70483706 -657.12930684 462.80633841 -654.23064888 459.9078119 C-627.79509727 433.47347255 -601.35230299 407.04639043 -574.9050293 380.6237793 C-549.93440397 355.67643472 -524.96833147 330.72454616 -500.00756836 305.76733398 C-499.23903154 304.99890868 -498.47049472 304.23048338 -497.67866891 303.43877246 C-494.58024591 300.34079831 -491.48182635 297.24282073 -488.38340697 294.14484295 C-486.83933903 292.60099539 -485.29527064 291.05714829 -483.75120178 289.51330164 C-482.21093433 287.97325554 -480.67066817 286.43320815 -479.1304033 284.89315946 C-454.59922375 260.36549564 -430.06407164 235.84180602 -405.52823673 211.31879922 C-398.34305043 204.13733181 -391.15809123 196.9556374 -383.97363162 189.77344298 C-368.85966762 174.66428917 -353.7445663 159.55627797 -338.62488555 144.45284458 C-332.37064197 138.20524934 -326.11715026 131.9569065 -319.86589813 125.7063179 C-314.6829308 120.52390284 -309.49831596 115.34314356 -304.31144233 110.16463802 C-301.7004074 107.55772036 -299.09015236 104.95003498 -296.48207634 102.34015682 C-293.67079478 99.52697776 -290.85566442 96.71767035 -288.04015255 93.90872478 C-287.23361226 93.10041502 -286.42707197 92.29210526 -285.59609106 91.45930126 C-280.88958901 86.77154138 -276.04710724 82.317652 -271 78 C-270.01257812 77.13117188 -269.02515625 76.26234375 -268.0078125 75.3671875 C-221.58838953 35.23765924 -164.33375484 9.9405088 -104 0 C-103.05898437 -0.16516113 -102.11796875 -0.33032227 -101.1484375 -0.50048828 C-68.90063779 -5.99056263 -32.19188085 -5.6961505 0 0 Z M-169.72558594 235.61206055 C-170.73205394 236.61881172 -171.73874437 237.62534059 -172.74563599 238.63166809 C-175.43716405 241.32291324 -178.12563236 244.01719513 -180.81349468 246.71210074 C-183.63834656 249.54327169 -186.46609586 252.37154594 -189.29351807 255.20014954 C-194.62877966 260.53849952 -199.9614906 265.87938971 -205.29325318 271.22123414 C-211.3712179 277.31043808 -217.45207655 283.39674864 -223.53316069 289.48283708 C-236.0252934 301.98537766 -248.51385003 314.49148466 -261 327 C-259.48449573 330.55489485 -257.40706197 332.8488197 -254.69113159 335.57629395 C-253.78594788 336.49000763 -252.88076416 337.40372131 -251.94815063 338.34512329 C-250.94194169 339.35063318 -249.93562077 340.35603103 -248.92919922 341.36132812 C-247.8707338 342.42577974 -246.81267924 343.49064004 -245.75500488 344.55587769 C-242.87887026 347.44969046 -239.99626552 350.33697377 -237.11191702 353.22259712 C-235.30456792 355.03136967 -233.49865146 356.84155988 -231.69324112 358.65226746 C-225.37755238 364.98647675 -219.05669908 371.31547935 -212.73095703 377.63964844 C-206.86555211 383.50385797 -201.01132685 389.37906137 -195.16239536 395.25969744 C-190.12139219 400.32703358 -185.07252231 405.38644308 -180.01770031 410.43999434 C-177.00782222 413.44936688 -174.00100486 416.46163579 -171.0021019 419.48194885 C-149.4815447 441.28685475 -149.4815447 441.28685475 -124.125 458.3125 C-123.38652832 458.71291504 -122.64805664 459.11333008 -121.88720703 459.52587891 C-100.34520766 470.90956603 -77.15174653 476.41815874 -52.8125 476.3125 C-52.13335541 476.31034485 -51.45421082 476.3081897 -50.75448608 476.30596924 C-39.9026128 476.25087793 -29.53979692 475.65556319 -19 473 C-18.2275293 472.81195801 -17.45505859 472.62391602 -16.65917969 472.43017578 C6.61200992 466.59613403 26.89121533 455.64862765 45 440 C45.49532227 439.57315918 45.99064453 439.14631836 46.50097656 438.70654297 C74.43110178 414.45610092 92.86010619 378.24604632 95.85498047 341.26660156 C98.32914854 302.59627092 87.81677543 263.50351203 62.25 233.7421875 C59.58846962 230.73862256 56.80319015 227.87146269 54 225 C53.16210938 224.08863281 52.32421875 223.17726562 51.4609375 222.23828125 C43.86050818 214.19009249 35.24453478 208.0265698 26 202 C25.40848145 201.61183105 24.81696289 201.22366211 24.20751953 200.82373047 C-42.44696683 157.87294174 -118.42620038 184.11013934 -169.72558594 235.61206055 Z " fill="#C213B9" transform="translate(1637,3)"/>
<path d="M0 0 C0.80099121 0.25330078 1.60198242 0.50660156 2.42724609 0.76757812 C43.88655391 14.07323975 82.46084968 36.08636166 115 65 C115.69207991 65.60962806 116.38415981 66.21925611 117.09721184 66.84735775 C123.7339454 72.74741999 130.05964025 78.92306659 136.32470703 85.21118164 C137.41954903 86.30630647 138.51461277 87.40120964 139.60987854 88.49591064 C142.55151728 91.43726517 145.49008579 94.38166908 148.42806864 97.3266747 C151.51052701 100.41542973 154.59586119 103.50130954 157.68087769 106.58750916 C163.50848438 112.41821069 169.33353963 118.25145418 175.15765846 124.08563942 C181.79422215 130.73342193 188.43366187 137.37832889 195.07333207 144.02300847 C208.7187334 157.67883232 222.36055994 171.33822216 236 185 C240.26640135 183.34928114 243.10666519 180.1533141 246.25102234 176.96257019 C246.87539604 176.33708308 247.49976973 175.71159597 248.14306384 175.06715471 C250.23776307 172.9663754 252.32522115 170.85854435 254.4128418 168.75073242 C255.91246368 167.2439985 257.41255673 165.73773341 258.91308594 164.23190308 C262.14770541 160.98416915 265.37929025 157.73345547 268.60867882 154.48052025 C273.7278817 149.32470586 278.85579232 144.17761256 283.98530579 139.03205872 C298.57234532 124.39674844 313.14780539 109.74993952 327.71411133 95.09399414 C335.7562771 87.00249262 343.80580252 78.91838334 351.86306888 70.84191781 C356.94964552 65.74235051 362.02712199 60.63395272 367.09778631 55.51856554 C370.27808 52.31456452 373.46694507 49.11919761 376.6581192 45.92603683 C378.12036155 44.45955185 379.5792265 42.98968887 381.03415108 41.51594353 C394.8760722 27.50217168 409.71094946 15.50669692 427 6 C427.60038086 5.66162109 428.20076172 5.32324219 428.81933594 4.97460938 C453.99158756 -9.08314567 482.62891624 -15.22718326 511.25 -15.25 C512.38866013 -15.25101212 512.38866013 -15.25101212 513.55032349 -15.25204468 C525.59956428 -15.23504998 537.2010827 -14.62830519 549 -12 C549.77230957 -11.83371094 550.54461914 -11.66742188 551.34033203 -11.49609375 C586.16525029 -3.78736005 617.42642782 14.25625771 642 40 C640.59138877 43.18940846 638.91817308 45.33171333 636.45861328 47.79093438 C635.71795863 48.53633984 634.97730399 49.28174529 634.21420527 50.04973879 C633.39550817 50.86346771 632.57681108 51.67719662 631.73330498 52.51558399 C630.86388161 53.38761464 629.99445825 54.25964529 629.09868872 55.15810111 C626.67318451 57.58883546 624.24325005 60.01498429 621.81138683 62.43934692 C619.1709883 65.07378868 616.53637956 67.71400968 613.9010421 70.35351247 C609.27762501 74.98262488 604.65048642 79.60799128 600.02091789 84.23095131 C593.13649263 91.1055764 586.25778169 97.98589781 579.38022547 104.86739403 C567.80994279 116.44395958 556.23492957 128.01578443 544.65716171 139.58486366 C533.18536582 151.0480523 521.7154193 162.51308574 510.24802017 173.98067284 C509.53535006 174.6933506 508.82267994 175.40602836 508.08841376 176.14030241 C505.19559459 179.03316249 502.30278777 181.92603492 499.40999779 184.8189242 C472.25414186 211.97568687 445.09285869 239.12701533 417.92885975 266.27563257 C393.79075882 290.40011555 369.65634753 314.52828321 345.52539062 338.65991211 C343.97664919 340.20869396 342.42790772 341.75747578 340.87916623 343.30625758 C340.11350271 344.07194146 339.34783918 344.83762533 338.55897373 345.62651175 C334.70479194 349.48079434 330.85060503 353.33507182 326.99641228 357.18934345 C326.23605598 357.94971646 325.47569969 358.71008947 324.69230229 359.49350408 C304.53789321 379.64827837 284.38103221 399.80060013 264.2233392 419.95208997 C263.50621747 420.66899142 262.78909575 421.38589287 262.05024306 422.12451861 C259.16644767 425.00742576 256.2826522 427.89033283 253.39884378 430.77322694 C243.36419029 440.8047204 233.33036244 450.837039 223.29706775 460.86989148 C210.36399824 473.80236382 197.42923161 486.73313497 184.49154215 499.66098563 C177.64855908 506.49885455 170.80693082 513.33807229 163.9672648 520.17925916 C159.39852912 524.7487295 154.82797617 529.31637673 150.25593771 533.88254243 C147.65085322 536.48437877 145.04655358 539.08698741 142.44444273 541.69179801 C139.6395735 544.49953504 136.83084804 547.30339422 134.02174187 550.10689259 C132.81476672 551.31695071 132.81476672 551.31695071 131.58340824 552.55145445 C126.88160494 557.23608667 122.04365649 561.68676735 117 566 C116.02417969 566.85722656 115.04835938 567.71445312 114.04296875 568.59765625 C47.41402599 626.11183256 -40.52822409 653.55853466 -128 647.25 C-213.18715082 640.28287829 -293.37001936 601.18801271 -350.4375 537.25 C-351.633362 535.84038489 -352.81939393 534.42241696 -354 533 C-354.43860352 532.48050781 -354.87720703 531.96101562 -355.32910156 531.42578125 C-374.13849712 509.10579124 -388.96360214 485.04120873 -402 459 C-402.40750488 458.18998535 -402.81500977 457.3799707 -403.23486328 456.54541016 C-440.51485168 381.36489579 -443.20898705 288.99592328 -417.16650391 210.03930664 C-407.61814452 182.22524531 -394.75424972 155.19987644 -378 131 C-377.38825928 130.1032959 -377.38825928 130.1032959 -376.76416016 129.18847656 C-367.51777849 115.66680614 -357.10045152 103.03522638 -346 91 C-345.16210938 90.05898437 -344.32421875 89.11796875 -343.4609375 88.1484375 C-336.7298247 80.61091677 -329.57124245 73.68976724 -322 67 C-321.47680176 66.5373877 -320.95360352 66.07477539 -320.41455078 65.59814453 C-273.19512355 24.14687419 -215.64857774 -1.31008089 -154 -12 C-152.99501465 -12.18079102 -151.9900293 -12.36158203 -150.95458984 -12.54785156 C-101.48571116 -21.07667623 -47.51211875 -15.15349359 0 0 Z M-198 203 C-198.56058105 203.48227051 -199.12116211 203.96454102 -199.69873047 204.46142578 C-223.65503532 225.27299357 -239.52031502 252.21600089 -247 283 C-247.17644043 283.70560059 -247.35288086 284.41120117 -247.53466797 285.13818359 C-252.38485198 305.42820014 -252.03541828 328.77950356 -247 349 C-246.81727539 349.76328613 -246.63455078 350.52657227 -246.44628906 351.31298828 C-239.72364807 378.55127506 -225.77660275 402.26926744 -206 422 C-205.07960938 422.93199219 -204.15921875 423.86398437 -203.2109375 424.82421875 C-173.12811525 453.87113115 -133.6096039 464.8399351 -92.70265198 464.17739868 C-84.5614109 463.99269803 -76.8847336 462.98660453 -69 461 C-68.2275293 460.81195801 -67.45505859 460.62391602 -66.65917969 460.43017578 C-33.7128649 452.17059906 -9.02094066 433.22602287 14.59033203 409.52319336 C15.60635725 408.50688522 16.62260439 407.4907989 17.63905334 406.47491455 C20.36582309 403.7484287 23.08952457 401.01889713 25.8126359 398.28875804 C28.67087376 395.42421806 31.53199271 392.56255851 34.39279175 389.70057678 C39.79540781 384.29486746 45.19547234 378.88661687 50.5945977 373.47742134 C56.74749211 367.31330314 62.90326693 361.15206481 69.0592711 354.99105251 C81.70936143 342.33054324 94.35587639 329.66646812 107 317 C105.50788297 313.52686298 103.5294874 311.28032598 100.86508179 308.61784363 C99.99882172 307.74738907 99.13256165 306.87693451 98.24005127 305.98010254 C97.27780615 305.02334075 96.31546149 304.06667907 95.35302734 303.11010742 C94.34067253 302.09667934 93.32875091 301.08281837 92.31723022 300.06855774 C89.56940039 297.31588082 86.81536004 294.56949556 84.06003904 291.8243196 C81.17236619 288.94544105 78.28997751 286.06128077 75.40689087 283.17781067 C70.55965708 278.33151365 65.70856652 273.48910468 60.85498047 268.64916992 C55.25773386 263.06760904 49.66569043 257.48087932 44.07664907 251.89110297 C38.11377248 245.92754831 32.14708327 239.96781937 26.17928743 234.00918794 C24.4673651 232.29938838 22.75614659 230.58888713 21.04508591 228.87822533 C18.34374756 226.17789909 15.63984606 223.48016433 12.93402481 220.78433037 C11.94642125 219.7996234 10.95963455 218.81409632 9.97377014 217.82764816 C-20.72604922 187.11654124 -57.61420094 168.07304151 -101.6875 167.6875 C-136.92629072 167.80057744 -171.2675918 179.84662847 -198 203 Z " fill="#00A7ED" transform="translate(646,15)"/>
<path d="M0 0 C11.63888904 -0.00045002 23.27777678 -0.0025536 34.9166654 -0.00569254 C38.3164535 -0.00659068 41.7162416 -0.0074805 45.11602971 -0.00836742 C45.96226109 -0.00858846 46.80849247 -0.00880951 47.68036722 -0.00903726 C71.37503446 -0.01516222 95.06970126 -0.0191409 118.76436934 -0.01869398 C120.09473063 -0.01867061 120.09473063 -0.01867061 121.45196791 -0.01864677 C125.94288692 -0.01856372 130.43380594 -0.01846468 134.92472495 -0.01836206 C135.8159493 -0.01834212 136.70717365 -0.01832217 137.6254048 -0.01830162 C139.427677 -0.01826118 141.2299492 -0.01821939 143.0322214 -0.01817623 C170.91854702 -0.01756685 198.80486035 -0.02501985 226.69118246 -0.0387488 C258.34364472 -0.05432709 289.99609894 -0.06270204 321.64856526 -0.06178558 C325.06658594 -0.061711 328.48460663 -0.06166226 331.90262732 -0.06163126 C332.7436339 -0.0616196 333.58464048 -0.06160795 334.45113211 -0.06159594 C346.01657049 -0.06156962 357.58200006 -0.06571154 369.1474358 -0.07337611 C446.54272578 -0.12442598 523.90484674 0.29110361 628.29030355 2.16706175 C629.77805116 2.19526654 629.77805116 2.19526654 631.29585427 2.22404112 C651.54414419 2.60824868 671.79121673 3.02296702 692.03720602 3.51515669 C695.92919885 3.60944057 699.82123294 3.70191648 703.71327719 3.79404539 C791.5215514 5.87676568 879.46967106 8.02642656 967.10280355 14.22956175 C968.19128592 14.30560637 969.27976828 14.38165098 970.40123495 14.45999998 C981.80777786 15.26966423 993.17112779 16.3072315 1004.5285848 17.64362425 C1005.52428991 17.75976576 1006.51999502 17.87590727 1007.54587301 17.99556822 C1045.23189254 22.61380707 1045.23189254 22.61380707 1057.29030355 37.16706175 C1064.56483774 46.77983906 1064.36042342 59.62911615 1062.9270223 71.06549925 C1060.82433306 80.1342406 1053.58171178 86.81415481 1046.29030355 92.16706175 C1041.34628043 95.0652822 1036.31687231 96.371119 1030.79030355 97.66706175 C1030.00010824 97.86686644 1029.20991293 98.06667112 1028.3957723 98.2725305 C1010.78826854 102.46733792 992.48367284 103.78548692 974.47780355 105.10456175 C972.83035147 105.227209 972.83035147 105.227209 971.14961752 105.35233397 C873.68935395 112.53301258 775.78452979 114.44728589 666.44440397 116.91681475 C659.38392657 117.07446305 652.323546 117.23553433 645.26324877 117.40105051 C538.97109193 119.8877852 432.63141422 119.94137258 -274.92258707 117.32459349 C-280.90691842 117.18499536 -286.89135249 117.05035616 -292.87582174 116.91681475 C-493.80631155 112.4322344 -493.80631155 112.4322344 -600.89719645 105.10456175 C-602.45425303 104.99049482 -602.45425303 104.99049482 -604.04276529 104.87412352 C-621.7569759 103.55575077 -639.73215919 102.03924103 -657.02219645 97.79206175 C-658.26259684 97.51749144 -658.26259684 97.51749144 -659.52805582 97.23737425 C-667.79008278 95.26124821 -674.74835356 91.75024721 -680.64719645 85.54206175 C-681.37809488 84.78667112 -682.10899332 84.0312805 -682.8620402 83.25299925 C-689.65906791 75.57939925 -690.41911754 66.00578475 -690.04563395 56.13581175 C-689.10981389 45.08007709 -685.06989848 37.45778396 -676.70969645 30.16706175 C-638.35167312 -0.5058743 -448.50564062 7.01752632 -271.84100595 2.59071297 C-269.43140966 2.54274286 -267.02181628 2.49462829 -264.6122233 2.44649214 C-254.53952794 2.24554083 -244.46674506 2.0495413 -234.39388171 1.85720271 C-232.33346563 1.81765021 -230.27306235 1.77749467 -228.21266237 1.73711294 C-220.20578521 1.58133188 -212.19881394 1.43968871 -204.19148001 1.30977196 C-199.23063058 1.22852838 -194.26999264 1.14047714 -189.30941263 1.04410452 C-126.2133167 -0.17076196 -63.10497978 0.00241287 0 0 Z " fill="#000000" transform="translate(876.7096964456141,810.8329382501543)"/>
<path d="M0 0 C0.80099121 0.25330078 1.60198242 0.50660156 2.42724609 0.76757812 C43.8864412 14.07320358 82.46104314 36.08626647 115 65 C115.69244812 65.60999627 116.38489624 66.21999254 117.09832764 66.84847355 C123.7233591 72.73839933 130.03885565 78.90225021 136.29296875 85.17944336 C137.3845657 86.27132316 138.47638443 87.36298128 139.56840515 88.45443726 C142.501914 91.38766186 145.43235201 94.32393642 148.36220551 97.26081157 C151.43838824 100.34329346 154.51744914 103.42289779 157.59619141 106.50282288 C163.41433208 112.32405882 169.22992173 118.14783626 175.04457474 123.9725557 C181.66202185 130.60120904 188.28233304 137.22699877 194.90287971 143.85255611 C207.95428244 156.91395486 221.00245305 169.97857753 234.04830933 183.04551601 C235.36506256 184.36415382 236.68230414 185.68230414 238 187 C195.43 229.57 152.86 272.14 109 316 C105.30158629 314.15079315 103.47741453 312.72310217 100.62457275 309.85835266 C99.32105865 308.55679482 99.32105865 308.55679482 97.99121094 307.22894287 C97.0360438 306.26510285 96.08096876 305.30117155 95.12597656 304.3371582 C94.11418678 303.32316648 93.10194791 302.3096227 92.08929443 301.29649353 C89.91033754 299.11460429 87.73457428 296.92959647 85.56122589 294.74212074 C82.11926754 291.277865 78.67020682 287.82073938 75.22015381 284.36454773 C69.75779025 278.89080073 64.30011615 273.41240539 58.84446883 267.93196505 C49.09156142 258.13479798 39.33318912 248.34308235 29.56945395 238.55670613 C26.14692671 235.12581104 22.72722955 231.69212762 19.30983782 228.25611746 C17.17393056 226.10949441 15.03593412 223.96496087 12.89743805 221.82091713 C11.91300128 220.83303761 10.92943563 219.84428904 9.94685364 218.85456467 C-19.1580633 189.54293713 -55.72518932 169.11435382 -97.953125 168.76953125 C-101.05234315 168.76363879 -104.15090584 168.78662419 -107.25 168.8125 C-109.03857226 168.82021207 -110.82714669 168.82743063 -112.61572266 168.83422852 C-118.72200947 168.86400827 -124.82795084 168.91943184 -130.93400574 168.97966003 C-133.13393835 169.00131864 -135.33387563 169.02245856 -137.53381348 169.0435791 C-161.3532511 169.27402741 -185.17164333 169.56644048 -208.98980999 169.90278721 C-213.93863304 169.97237154 -218.88748097 170.03685525 -223.83642578 170.09716797 C-229.1319499 170.16221694 -234.42709257 170.2395534 -239.722229 170.33084106 C-241.48351418 170.35948516 -243.24487535 170.38389155 -245.00628662 170.40328979 C-261.02214295 170.58671395 -276.87513158 172.46516325 -292.375 176.625 C-293.32068848 176.87660889 -294.26637695 177.12821777 -295.24072266 177.38745117 C-341.59726253 190.28048384 -382.91979616 221.80352121 -406.7421875 263.78515625 C-418.08832878 284.58301108 -425.34743851 304.82342716 -430 328 C-430.19416504 328.96615234 -430.38833008 329.93230469 -430.58837891 330.92773438 C-431.06070542 333.28480539 -431.53133093 335.64219947 -432 338 C-432.33 338 -432.66 338 -433 338 C-442.38434278 267.95258423 -417.73538442 188.39387974 -378 131 C-377.38825928 130.1032959 -377.38825928 130.1032959 -376.76416016 129.18847656 C-367.51777849 115.66680614 -357.10045152 103.03522638 -346 91 C-345.16210938 90.05898437 -344.32421875 89.11796875 -343.4609375 88.1484375 C-336.7298247 80.61091677 -329.57124245 73.68976724 -322 67 C-321.47680176 66.5373877 -320.95360352 66.07477539 -320.41455078 65.59814453 C-273.19512355 24.14687419 -215.64857774 -1.31008089 -154 -12 C-152.99501465 -12.18079102 -151.9900293 -12.36158203 -150.95458984 -12.54785156 C-101.48571116 -21.07667623 -47.51211875 -15.15349359 0 0 Z " fill="#00B5E9" transform="translate(646,15)"/>
<path d="M0 0 C22.11 0 44.22 0 67 0 C77.16103726 11.2900414 77.16103726 11.2900414 81.3125 16.75 C85.61936936 22.32422935 90.11293011 27.69884734 94.72314453 33.02368164 C98.27499541 37.13271971 101.70862068 41.3175121 105.078125 45.578125 C108.66376736 50.09661741 112.34123694 54.54068708 116 59 C117.50028317 60.83310162 119.00028408 62.66643427 120.5 64.5 C121.2425 65.4075 121.985 66.315 122.75 67.25 C135.125 82.375 135.125 82.375 147.5 97.5 C148.24894531 98.41523437 148.99789063 99.33046875 149.76953125 100.2734375 C151.20499935 102.02817784 152.63993796 103.78335155 154.07421875 105.5390625 C158.70323818 111.2034079 163.34813906 116.85440553 168 122.5 C173.34685204 128.98905001 178.68056318 135.48844833 184 142 C185.49985696 143.83345036 186.9998594 145.66678171 188.5 147.5 C215.5 180.5 215.5 180.5 217.74609375 183.24609375 C219.25798227 185.09337522 220.77101749 186.93971875 222.28515625 188.78515625 C223.03667969 189.70167969 223.78820313 190.61820313 224.5625 191.5625 C225.22378906 192.36816406 225.88507813 193.17382812 226.56640625 194.00390625 C230.06894098 198.31601562 233.52959344 202.6619918 237 207 C237.33 138.69 237.66 70.38 238 0 C264.4 0 290.8 0 318 0 C318 114.18 318 228.36 318 346 C295.56 346 273.12 346 250 346 C247.03 342.37 244.06 338.74 241 335 C238.66806516 332.165493 236.33513836 329.33186143 234 326.5 C229.45768276 320.98813799 224.92539134 315.4683894 220.40625 309.9375 C217.27823847 306.11888852 214.13915083 302.30945577 211 298.5 C206.45786868 292.98798441 201.92539199 287.4683902 197.40625 281.9375 C194.27823843 278.11888847 191.13913708 274.30946716 188 270.5 C181.96460706 263.17537717 175.94905759 255.83496785 169.9453125 248.484375 C164.69686804 242.0632012 159.42755621 235.6594752 154.15356445 229.25927734 C150.22747162 224.49373259 146.31301136 219.71890943 142.40625 214.9375 C139.27823847 211.11888852 136.13915083 207.30945577 133 203.5 C128.45786868 197.98798441 123.92539199 192.4683902 119.40625 186.9375 C116.27823833 183.11888835 113.13910745 179.3094917 110 175.5 C100.28367303 163.70646911 90.63604901 151.85975263 81 140 C80.67 207.98 80.34 275.96 80 346 C53.6 346 27.2 346 0 346 C0 231.82 0 117.64 0 0 Z " fill="#4F5863" transform="translate(979,991)"/>
<path d="M0 0 C22.44 0 44.88 0 68 0 C70.64 3.3 73.28 6.6 76 10 C77.47498113 11.81590775 78.95322899 13.62917762 80.4375 15.4375 C81.56478516 16.81228516 81.56478516 16.81228516 82.71484375 18.21484375 C83.84599609 19.59349609 83.84599609 19.59349609 85 21 C86.50028317 22.83310162 88.00028408 24.66643427 89.5 26.5 C90.2425 27.4075 90.985 28.315 91.75 29.25 C97 35.66666667 102.25 42.08333333 107.5 48.5 C108.24894531 49.41523437 108.99789062 50.33046875 109.76953125 51.2734375 C111.20499935 53.02817784 112.63993796 54.78335155 114.07421875 56.5390625 C118.70323818 62.2034079 123.34813906 67.85440553 128 73.5 C133.34685204 79.98905001 138.68056318 86.48844833 144 93 C145.49985696 94.83345036 146.9998594 96.66678171 148.5 98.5 C220.5 186.5 220.5 186.5 222.7265625 189.22265625 C224.30300376 191.1485149 225.88125492 193.0728929 227.4609375 194.99609375 C228.25757813 195.96675781 229.05421875 196.93742187 229.875 197.9375 C230.95394531 199.25041016 230.95394531 199.25041016 232.0546875 200.58984375 C233.74965977 202.68983951 235.38078761 204.84105015 237 207 C237.33 138.69 237.66 70.38 238 0 C264.4 0 290.8 0 318 0 C318 114.18 318 228.36 318 346 C295.56 346 273.12 346 250 346 C244.555 339.07 244.555 339.07 239 332 C237.01696429 329.64280661 235.03553411 327.30833765 233 325 C228.54246255 319.87412251 224.30357624 314.61960275 220.14453125 309.25 C216.88018754 305.05966768 213.48227535 301.01043537 210 297 C205.5462293 291.87072166 201.30374782 286.61982428 197.14453125 281.25 C193.88018754 277.05966768 190.48227535 273.01043537 187 269 C182.5462293 263.87072166 178.30374782 258.61982428 174.14453125 253.25 C170.88018754 249.05966768 167.48227535 245.01043537 164 241 C159.5462293 235.87072166 155.30374782 230.61982428 151.14453125 225.25 C147.88018754 221.05966768 144.48227535 217.01043537 141 213 C136.5462293 207.87072166 132.30374782 202.61982428 128.14453125 197.25 C124.88018754 193.05966768 121.48227535 189.01043537 118 185 C114.0317822 180.42991884 110.20629106 175.78498273 106.5 171 C102.2946964 165.57154294 97.92754092 160.31624461 93.41015625 155.14453125 C89.10908806 150.2031355 85.1082645 145.13533063 81 140 C80.67 207.98 80.34 275.96 80 346 C53.6 346 27.2 346 0 346 C0 231.82 0 117.64 0 0 Z " fill="#4F5863" transform="translate(147,991)"/>
<path d="M0 0 C11.03913518 -0.37169728 22.07676999 -0.65547653 33.12090111 -0.82899475 C38.25033793 -0.91230823 43.37547837 -1.02513979 48.50244141 -1.20703125 C53.45657609 -1.38167893 58.40659869 -1.47669144 63.36357498 -1.51803589 C65.24832578 -1.54746796 67.13286541 -1.60495961 69.01585007 -1.69168091 C83.34528016 -2.32501001 83.34528016 -2.32501001 87.74089622 1.52468109 C90.85599902 5.30442993 93.00430301 9.47109127 95.01585579 13.91460419 C96.60650719 17.28518519 98.58172537 20.40927459 100.53515625 23.578125 C101.28253067 24.83701192 102.02761841 26.09726164 102.76953125 27.359375 C109.60193705 38.95411803 116.49312602 50.50985122 123.5 62 C129.72315237 72.20497113 135.85151906 82.4626645 141.9375 92.75 C146.95365727 101.22885616 151.97815893 109.6927794 157.26489258 118.00683594 C164.10917648 128.836494 170.49975267 139.96193558 177 151 C180.10869833 147.29653741 182.66311423 143.41814369 185.08984375 139.25 C185.47036392 138.60421997 185.85088409 137.95843994 186.24293518 137.29309082 C187.05578942 135.91320167 187.86702143 134.53235582 188.67675781 133.15063477 C190.81598958 129.50143015 192.96823746 125.85992868 195.12109375 122.21875 C195.54663544 121.49868774 195.97217712 120.77862549 196.41061401 120.03674316 C199.70159237 114.47871741 203.07064837 108.97380524 206.5 103.5 C212.31093777 94.20793298 217.90039384 84.79106371 223.47949219 75.35888672 C229.76210071 64.7392356 236.12493981 54.17330617 242.54980469 43.63916016 C249.13197234 32.82736901 255.58772031 21.94165378 262.02148438 11.04101562 C262.41400391 10.37716354 262.80652344 9.71331146 263.2109375 9.02934265 C263.94988177 7.77947775 264.68757199 6.52887033 265.42382812 5.27742004 C267.88747131 1.11252869 267.88747131 1.11252869 269 0 C271.49492388 -0.09502416 273.96206014 -0.12557566 276.45727539 -0.11352539 C277.23770706 -0.11367142 278.01813873 -0.11381744 278.82221985 -0.1139679 C281.4140598 -0.11326858 284.00582878 -0.10547536 286.59765625 -0.09765625 C288.3898464 -0.09579213 290.18203706 -0.0943682 291.97422791 -0.09336853 C296.70070797 -0.08954284 301.42715752 -0.07971212 306.15362549 -0.06866455 C310.9728555 -0.05845153 315.79209042 -0.05387115 320.61132812 -0.04882812 C330.07423219 -0.03808989 339.53711356 -0.02101286 349 0 C347.54154567 3.75517213 345.86888025 7.05368552 343.75390625 10.48828125 C343.09132813 11.57044922 342.42875 12.65261719 341.74609375 13.76757812 C341.39144043 14.3432251 341.03678711 14.91887207 340.67138672 15.51196289 C338.74216047 18.64451322 336.82632484 21.78523223 334.91015625 24.92578125 C334.50797882 25.58450226 334.10580139 26.24322327 333.69143677 26.92190552 C329.22930366 34.24277082 324.86398816 41.62037222 320.5 49 C313.8851934 60.17878998 307.19200548 71.30557574 300.42944336 82.39550781 C294.9016145 91.47124353 289.4732636 100.60409147 284.0625 109.75 C279.1034224 118.13208872 274.1338297 126.49684778 268.90869141 134.71679688 C264.00358111 142.49030782 259.37744729 150.43500022 254.69793701 158.34539795 C248.28195532 169.18904008 241.79704509 179.98713853 235.22241211 190.73535156 C233.95041821 192.81925993 232.6958322 194.91389045 231.45858765 197.01861572 C229.69957944 199.95034442 227.78492376 202.71574059 225.78666687 205.48913574 C215.18075948 220.83196342 214.18123481 233.7751837 214.51171875 252.0546875 C214.5207852 254.78099372 214.51022022 257.50713488 214.50019836 260.23342896 C214.48773974 266.61208436 214.54046426 272.98835535 214.61836988 279.36647809 C214.71239294 287.36142802 214.71628061 295.35614741 214.72070312 303.3515625 C214.7289543 317.56927229 214.8703566 331.78173196 215 346 C188.27 346 161.54 346 134 346 C134.07863281 337.37617187 134.15726563 328.75234375 134.23828125 319.8671875 C134.26179026 313.6601203 134.27702799 307.45345734 134.28046131 301.2463913 C134.28597961 293.23386524 134.31009652 285.2229255 134.40795898 277.2109375 C134.48546262 270.86054252 134.51552912 264.51185227 134.49218339 258.16100037 C134.48141714 254.80685914 134.49904732 251.45920216 134.55968666 248.10515976 C134.86748455 230.00629338 132.2087037 217.97386801 121.54385281 203.17205334 C119.40493055 200.16279416 117.55022844 197.03361012 115.6796875 193.8515625 C114.412413 191.77545863 113.14418377 189.69993723 111.875 187.625 C105.61175611 177.35687315 99.43947646 167.03744615 93.3125 156.6875 C86.22301634 144.71467834 79.04922183 132.79787312 71.78955078 120.92724609 C68.4572055 115.4763839 65.13198162 110.0212031 61.8125 104.5625 C61.459599 103.98222046 61.106698 103.40194092 60.74310303 102.80407715 C54.93106599 93.24058342 49.20153228 83.62970149 43.5 74 C37.5106473 63.88442286 31.48347908 53.79413749 25.375 43.75 C24.69381104 42.62932129 24.01262207 41.50864258 23.31079102 40.35400391 C20.01089364 34.93104379 16.70309321 29.51306807 13.38525391 24.10107422 C11.78560015 21.49024037 10.18924776 18.8773966 8.59332275 16.26428223 C7.82771758 15.012841 7.0604448 13.76241834 6.29144287 12.51306152 C5.23072644 10.7897684 4.17576096 9.06293941 3.12109375 7.3359375 C2.5170874 6.35157715 1.91308105 5.3672168 1.29077148 4.35302734 C0 2 0 2 0 0 Z " fill="#4F5863" transform="translate(1780,991)"/>
<path d="M0 0 C99.66 0 199.32 0 302 0 C302 21.78 302 43.56 302 66 C265.7 66 229.4 66 192 66 C192 158.4 192 250.8 192 346 C165.27 346 138.54 346 111 346 C111 253.6 111 161.2 111 66 C74.37 66 37.74 66 0 66 C0 44.22 0 22.44 0 0 Z " fill="#4F5863" transform="translate(1471,991)"/>
<path d="M0 0 C79.53 0 159.06 0 241 0 C241 24.75 241 49.5 241 75 C188.2 75 135.4 75 81 75 C81 121.2 81 167.4 81 215 C54.27 215 27.54 215 0 215 C0 144.05 0 73.1 0 0 Z " fill="#00BFE7" transform="translate(531,1122)"/>
<path d="M0 0 C26.73 0 53.46 0 81 0 C81 114.18 81 228.36 81 346 C54.27 346 27.54 346 0 346 C0 231.82 0 117.64 0 0 Z " fill="#4F5863" transform="translate(1363,991)"/>
<path d="M0 0 C26.73 0 53.46 0 81 0 C81 114.18 81 228.36 81 346 C54.27 346 27.54 346 0 346 C0 231.82 0 117.64 0 0 Z " fill="#4F5863" transform="translate(832,991)"/>
<path d="M0 0 C26.73 0 53.46 0 81 0 C81 114.18 81 228.36 81 346 C54.27 346 27.54 346 0 346 C0 231.82 0 117.64 0 0 Z " fill="#4F5863" transform="translate(0,991)"/>
<path d="M0 0 C86.46 0 172.92 0 262 0 C262 21.45 262 42.9 262 65 C175.54 65 89.08 65 0 65 C0 43.55 0 22.1 0 0 Z " fill="#00B2EA" transform="translate(531,991)"/>
<path d="M0 0 C17.510625 -0.061875 17.510625 -0.061875 35.375 -0.125 C39.04286621 -0.14320801 42.71073242 -0.16141602 46.48974609 -0.18017578 C51.01489258 -0.18920898 51.01489258 -0.18920898 53.14224243 -0.19088745 C54.60848204 -0.19393184 56.07471707 -0.20090952 57.54092407 -0.21115112 C73.17364761 -0.31476193 87.08070088 0.97120151 98.9375 12.375 C108.97339696 23.24570936 111.80938348 34.07583852 111.34765625 48.6484375 C110.68610601 59.64582106 105.21134135 69.34828551 97.1875 76.75 C94.44921762 79.14373029 91.52261935 80.85966653 88.34887695 82.60644531 C87.53538284 83.05513977 86.72188873 83.50383423 85.88374329 83.96612549 C85.262108 84.30730408 84.64047272 84.64848267 84 85 C84.46353882 85.4590976 84.92707764 85.91819519 85.40466309 86.39120483 C90.21179402 91.15421811 95.01197291 95.92415474 99.80810547 100.69824219 C101.60091239 102.48096803 103.39550699 104.2618979 105.19189453 106.04101562 C107.76802899 108.59299438 110.33774492 111.15128303 112.90625 113.7109375 C113.71557983 114.50994476 114.52490967 115.30895203 115.35876465 116.13217163 C116.09953247 116.87278839 116.84030029 117.61340515 117.60351562 118.37646484 C118.26081665 119.02932465 118.91811768 119.68218445 119.59533691 120.35482788 C121 122 121 122 121 124 C108.36646354 127.1917041 93.82034813 129.23809494 82.11096191 122.28430176 C75.21095663 117.38988196 69.10635557 111.67934994 63.1682663 105.67742157 C61.75915787 104.25921698 60.32920968 102.86181908 58.89923096 101.46466064 C42.1956409 84.88396372 42.1956409 84.88396372 41.73272705 73.32562256 C41.8684134 69.46225115 42.30215442 65.80351687 43 62 C43.77601562 61.98541748 44.55203125 61.97083496 45.3515625 61.95581055 C48.90151773 61.88088234 52.45057843 61.78436887 56 61.6875 C57.83111328 61.65366211 57.83111328 61.65366211 59.69921875 61.61914062 C70.30344996 61.46025938 70.30344996 61.46025938 79.51123047 56.69091797 C82.87614356 52.98144163 85.00608862 49.08692984 84.99609375 44.01953125 C84.46966235 38.04957512 82.54096953 34.20503798 78 30.25 C63.82129923 19.61597442 42.7193657 26.37700778 25 26 C25 58.34 25 90.68 25 124 C16.75 124 8.5 124 0 124 C0 83.08 0 42.16 0 0 Z " fill="#4F5863" transform="translate(1283,1402)"/>
<path d="M0 0 C15.36438671 12.45113936 23.92544043 28.19247907 26.22705078 47.68359375 C28.04111824 65.15996198 21.46261093 81.93267159 10.97705078 95.62109375 C3.36221465 104.32189449 -5.91741092 110.74034266 -16.77294922 114.68359375 C-17.63662109 115.00199219 -18.50029297 115.32039063 -19.39013672 115.6484375 C-37.01338726 121.06521564 -56.25342966 118.24735952 -72.31201172 109.828125 C-88.0902236 100.53670733 -98.53024094 85.08263644 -103.15551758 67.65161133 C-104.15644382 62.84012049 -104.22048112 58.14529376 -104.14794922 53.24609375 C-104.13634766 52.23546875 -104.12474609 51.22484375 -104.11279297 50.18359375 C-103.73221399 32.83366993 -97.170507 17.65387862 -84.81201172 5.40625 C-61.87059407 -15.86000847 -25.41448336 -18.87013141 0 0 Z M-69.02294922 26.87109375 C-74.19746928 32.98549669 -78.24429286 40.57752962 -78.77294922 48.68359375 C-78.83482422 49.31136719 -78.89669922 49.93914062 -78.96044922 50.5859375 C-79.57705504 61.24165681 -75.53585255 70.96360921 -69.04638672 79.23828125 C-60.69562603 88.22037092 -51.19586938 92.08734838 -39.14404297 92.7421875 C-28.61325764 92.55914952 -19.2060125 88.75946602 -11.51513672 81.57421875 C-2.85690975 72.30895742 0.72059904 62.66845454 0.47314453 49.9609375 C-0.35656974 38.9112506 -5.7269635 29.9185834 -13.64404297 22.3203125 C-31.28208367 8.76005736 -53.88661105 11.02612552 -69.02294922 26.87109375 Z " fill="#4F5863" transform="translate(1091.77294921875,1411.31640625)"/>
<path d="M0 0 C0.54785156 0.43570312 1.09570312 0.87140625 1.66015625 1.3203125 C-1.16786949 6.55216013 -4.36090301 11.13333875 -8.08984375 15.7578125 C-8.59644531 16.39396484 -9.10304688 17.03011719 -9.625 17.68554688 C-10.85901116 19.23388163 -12.09882058 20.77759232 -13.33984375 22.3203125 C-16.88325273 21.00724073 -19.91413576 19.42211518 -23.08984375 17.3828125 C-33.74265144 10.87364536 -46.52942565 8.27710138 -58.890625 10.8515625 C-62.83219749 12.21738046 -66.09755346 13.77001954 -68.33984375 17.3203125 C-68.87114452 21.56301861 -68.69253728 25.26223191 -67.33984375 29.3203125 C-65.13374719 30.46510058 -65.13374719 30.46510058 -62.33984375 31.3203125 C-61.27894531 31.67609375 -60.21804688 32.031875 -59.125 32.3984375 C-52.13944628 34.59745756 -45.15137627 36.65546979 -38.06518555 38.50830078 C-6.53406298 46.79956813 -6.53406298 46.79956813 1.34765625 58.9140625 C6.05626735 68.01024303 7.14196643 77.27725086 5.01171875 87.40234375 C1.64667082 97.68443465 -5.45293193 104.77367209 -14.83984375 109.8828125 C-34.62961352 119.21597903 -59.71476357 117.28912835 -79.90234375 110.1328125 C-99.25967204 102.24116317 -99.25967204 102.24116317 -103.33984375 96.3203125 C-103.17921084 92.66956457 -101.29109275 90.97746407 -98.71484375 88.5703125 C-95.15468917 85.16994942 -91.97924501 81.61363472 -88.8828125 77.7890625 C-87.33984375 76.3203125 -87.33984375 76.3203125 -84.33984375 76.3203125 C-82.84077207 77.32451689 -81.38821177 78.39890951 -79.96484375 79.5078125 C-66.31159427 89.29693477 -49.75365554 91.95555751 -33.33984375 89.3203125 C-28.89002399 87.88066493 -25.99444599 86.30221586 -23.33984375 82.3203125 C-22.89667592 78.33180199 -22.79999882 76.14003095 -25.03515625 72.74609375 C-32.17024622 65.23610922 -45.8261147 63.89647286 -55.51904297 61.55102539 C-70.09403908 57.97993394 -85.52463094 53.36776276 -94.33984375 40.3203125 C-99.1712134 32.09121405 -99.90655709 22.71039049 -97.64453125 13.484375 C-94.25804186 4.23555945 -88.57475348 -2.40493653 -80.33984375 -7.6796875 C-79.46779297 -8.25009766 -79.46779297 -8.25009766 -78.578125 -8.83203125 C-55.81626765 -21.9163961 -19.9891758 -15.0162589 0 0 Z " fill="#4F5863" transform="translate(557.33984375,1413.6796875)"/>
<path d="M0 0 C32.67 0 65.34 0 99 0 C99 8.25 99 16.5 99 25 C74.58 25 50.16 25 25 25 C25 32.92 25 40.84 25 49 C53.38 49 81.76 49 111 49 C111 57.25 111 65.5 111 74 C74.37 74 37.74 74 0 74 C0 49.58 0 25.16 0 0 Z " fill="#4F5863" transform="translate(1564,1452)"/>
<path d="M0 0 C36.63 0 73.26 0 111 0 C111 8.58 111 17.16 111 26 C96.81 26 82.62 26 68 26 C68 58.34 68 90.68 68 124 C59.75 124 51.5 124 43 124 C43 91.66 43 59.32 43 26 C28.81 26 14.62 26 0 26 C0 17.42 0 8.84 0 0 Z " fill="#4F5863" transform="translate(724,1402)"/>
<path d="M0 0 C36.63 0 73.26 0 111 0 C111 8.58 111 17.16 111 26 C74.37 26 37.74 26 0 26 C0 17.42 0 8.84 0 0 Z " fill="#4F5863" transform="translate(1564,1402)"/>
<path d="M0 0 C5.61226148 0.6193712 11.01024265 1.5650579 16.5 2.875 C17.20769531 3.03613281 17.91539063 3.19726562 18.64453125 3.36328125 C22.96411076 4.3819755 27.02291752 5.71066859 31.15576172 7.32177734 C33.66284617 8.24376313 36.20359636 8.81308229 38.8125 9.375 C44.95996238 10.857805 50.32902569 13.25118712 56 16 C57.66575657 16.73124337 59.33245001 17.4603557 61 18.1875 C73.90747627 24.07642031 86.48154302 30.69294781 98 39 C98.95777344 39.68449219 99.91554688 40.36898437 100.90234375 41.07421875 C118.43551666 53.90730326 134.74796831 68.73502913 148 86 C148.90563749 87.13069919 149.81192782 88.2608757 150.71875 89.390625 C183.43554296 130.82315849 199.20774168 181.31281576 199.1328125 233.64453125 C199.13348936 235.34291091 199.13446253 237.04129047 199.13571167 238.7396698 C199.13717833 242.29398524 199.13507261 245.84827541 199.13037109 249.40258789 C199.12475642 253.85391879 199.12799395 258.30518876 199.13382339 262.75651741 C199.15780313 284.52403961 198.85537437 306.24840825 198 328 C197.67 328 197.34 328 197 328 C196.32762248 314.60640137 195.89964542 301.21763634 195.71875 287.80859375 C195.70442932 286.75435652 195.70442932 286.75435652 195.68981934 285.67882156 C195.61215424 279.86562026 195.54285202 274.05232402 195.47393799 268.23901367 C195.7572404 234.87213778 195.7572404 234.87213778 192.25 201.8125 C192.0744458 200.82604492 191.8988916 199.83958984 191.71801758 198.82324219 C181.18871105 141.48114574 151.38081923 87.12477892 105 51 C104.06414062 50.23558594 103.12828125 49.47117188 102.1640625 48.68359375 C83.84402914 34.0134385 62.9536985 22.2235401 41 14 C40.36698975 13.75902588 39.73397949 13.51805176 39.08178711 13.26977539 C26.27738857 8.41250079 13.28194982 4.3302824 0 1 C0 0.67 0 0.34 0 0 Z " fill="#F4B1DD" transform="translate(1536,3)"/>
<path d="M0 0 C0.33 0 0.66 0 1 0 C1.03092239 1.67319305 1.03092239 1.67319305 1.06246948 3.38018799 C1.26019033 14.02611249 1.46581503 24.67186067 1.67867851 35.31749344 C1.78780516 40.78711889 1.89439108 46.25676636 1.99462891 51.7265625 C2.39910177 98.15841227 2.39910177 98.15841227 9 144 C9.26852783 145.21042969 9.26852783 145.21042969 9.54248047 146.4453125 C16.80361553 178.26216834 31.50717725 207.96289498 51 234 C51.41975098 234.56541504 51.83950195 235.13083008 52.27197266 235.71337891 C87.12162906 282.37918456 137.76583606 312.56016802 194 326 C194 326.33 194 326.66 194 327 C180.79472405 326.45092408 168.64323468 322.32105188 156.25 318.0625 C155.30415039 317.73886475 154.35830078 317.41522949 153.38378906 317.08178711 C146.73810012 314.75070704 140.3635851 312.01242423 134 309 C132.95755127 308.51213013 132.95755127 308.51213013 131.89404297 308.0144043 C102.72428246 294.22173378 75.65901988 273.85666933 55 249 C54.57493164 248.49404297 54.14986328 247.98808594 53.71191406 247.46679688 C39.91318674 230.96893621 29.59366758 213.21244947 20 194 C19.63358398 193.27506348 19.26716797 192.55012695 18.88964844 191.80322266 C9.48670826 173.10387807 4.82628024 153.49335508 1 133 C0.81650497 132.02727142 0.63300995 131.05454285 0.44395447 130.05233765 C-1.39467161 118.93992183 -1.27211931 107.9134872 -1.23046875 96.6796875 C-1.22927295 94.52800525 -1.22882463 92.37632246 -1.2290802 90.22463989 C-1.22752415 85.73143201 -1.21930656 81.23830478 -1.20581055 76.74511719 C-1.18888429 71.0438055 -1.18499519 65.34258258 -1.18575573 59.6412487 C-1.18548096 55.20029891 -1.1799502 50.75936774 -1.17275429 46.31842422 C-1.16961632 44.21931219 -1.1676119 42.12019808 -1.16686058 40.02108383 C-1.15683699 26.64991224 -0.79753625 13.34799762 0 0 Z " fill="#A8D3FB" transform="translate(395,331)"/>
<path d="M0 0 C0.97107193 -0.00136459 1.94214386 -0.00272919 2.94264221 -0.00413513 C6.19877344 -0.00618644 9.45481515 0.0002581 12.7109375 0.0078125 C13.84866608 0.00903107 14.98639465 0.01024963 16.15859985 0.01150513 C38.33361039 0.03870766 60.50666536 0.26906987 82.67986298 0.53897858 C85.24068908 0.56991685 87.80152548 0.59983498 90.36236572 0.62957764 C110.28465136 0.86388724 130.17980986 1.2546319 150.0859375 2.1328125 C150.0859375 2.4628125 150.0859375 2.7928125 150.0859375 3.1328125 C128.00493835 3.97413338 105.9344324 4.35731822 83.83938599 4.57781982 C74.68836118 4.66988515 65.53755412 4.78160694 56.38671875 4.890625 C54.59112046 4.91192089 52.79552211 4.93321204 50.99992371 4.95449829 C46.78917253 5.00448302 42.57842713 5.05493627 38.36768341 5.10554504 C36.23241061 5.13106211 34.09713299 5.15612085 31.96185303 5.18103027 C25.42476354 5.25838977 18.8881491 5.34666073 12.35162354 5.46264648 C10.59547111 5.49198905 8.83923546 5.51682224 7.08294678 5.53637695 C-8.93415975 5.71958891 -24.78793685 7.59763833 -40.2890625 11.7578125 C-41.23475098 12.00942139 -42.18043945 12.26103027 -43.15478516 12.52026367 C-89.51132503 25.41329634 -130.83385866 56.93633371 -154.65625 98.91796875 C-166.00239128 119.71582358 -173.26150101 139.95623966 -177.9140625 163.1328125 C-178.20531006 164.58204102 -178.20531006 164.58204102 -178.50244141 166.06054688 C-178.97476792 168.41761789 -179.44539343 170.77501197 -179.9140625 173.1328125 C-180.2440625 173.1328125 -180.5740625 173.1328125 -180.9140625 173.1328125 C-179.56929062 131.31040709 -159.39533279 88.52577499 -130.47607422 58.74609375 C-128.91000678 57.12862366 -127.3669996 55.49122356 -125.82421875 53.8515625 C-104.23844823 31.23773816 -73.26793933 12.81347628 -42.6640625 6.0703125 C-41.94734375 5.90748779 -41.230625 5.74466309 -40.4921875 5.5769043 C-38.30173137 5.08448552 -36.10881935 4.60566662 -33.9140625 4.1328125 C-33.22634766 3.98424805 -32.53863281 3.83568359 -31.83007812 3.68261719 C-21.13091831 1.39730967 -10.93525977 -0.02448346 0 0 Z " fill="#AAD2FC" transform="translate(393.9140625,179.8671875)"/>
<path d="M0 0 C0.66 0.33 1.32 0.66 2 1 C-1.90554432 37.05454549 -13.48808681 71.09856689 -36 100 C-36.98613281 101.31871094 -36.98613281 101.31871094 -37.9921875 102.6640625 C-67.88480086 141.16388749 -112.6610948 165.14675343 -160.49609375 172.17089844 C-174.33510739 173.90898677 -188.34361402 173.46954822 -202.2636795 173.33476639 C-205.7180584 173.30458908 -209.17243739 173.28964601 -212.62691116 173.27481747 C-223.49819452 173.22809158 -234.36878354 173.13396855 -245.23961639 173.02676392 C-248.00285401 172.99997233 -250.76610122 172.97469127 -253.52935791 172.94995117 C-265.89480458 172.83912924 -278.25993769 172.71004513 -290.625 172.5625 C-291.45477482 172.55284336 -292.28454964 172.54318672 -293.13946915 172.53323746 C-297.89876588 172.47754468 -302.65793978 172.41665372 -307.41705894 172.34737396 C-308.85329848 172.32701371 -310.28955979 172.30812606 -311.72583961 172.29084015 C-313.68789125 172.26676511 -315.64985997 172.23619599 -317.61181641 172.20532227 C-318.70732819 172.18977798 -319.80283997 172.1742337 -320.93154907 172.15821838 C-324.02094233 171.99892015 -326.9616278 171.5691444 -330 171 C-330 170.67 -330 170.34 -330 170 C-321.68759181 169.84877665 -313.37506302 169.70492839 -305.0625 169.5625 C-303.75499786 169.5397702 -302.44749573 169.51704041 -301.10037231 169.49362183 C-283.67704975 169.19227595 -266.25415238 168.96053772 -248.82886696 168.80774117 C-245.83558396 168.78124687 -242.84231379 168.75360092 -239.8490448 168.72557068 C-237.85110481 168.70693227 -235.85316474 168.68830128 -233.85522461 168.66967773 C-232.37302823 168.65582488 -232.37302823 168.65582488 -230.86088848 168.64169216 C-224.96781128 168.58750903 -219.0747382 168.54166794 -213.18154907 168.50161934 C-209.43476698 168.47425874 -205.68808044 168.43927834 -201.94137955 168.40255737 C-200.20741457 168.38716335 -198.4734182 168.37488484 -196.73940659 168.36621094 C-179.81201224 168.27894538 -163.02473414 167.15843287 -146.5 163.3125 C-144.79299927 162.92167236 -144.79299927 162.92167236 -143.05151367 162.52294922 C-126.81524854 158.67676804 -111.56730568 153.15250609 -97 145 C-96.28102539 144.59797363 -95.56205078 144.19594727 -94.82128906 143.78173828 C-83.29577285 137.23894524 -72.99863977 129.68056205 -63 121 C-62.45698242 120.53142578 -61.91396484 120.06285156 -61.35449219 119.58007812 C-55.41993024 114.42706844 -49.95283801 109.09981102 -45 103 C-43.78763672 101.54400391 -43.78763672 101.54400391 -42.55078125 100.05859375 C-20.96957747 73.72294025 -4.91286071 40.81453515 -0.8125 6.75 C-0.65394531 5.46609375 -0.49539063 4.1821875 -0.33203125 2.859375 C-0.16767578 1.44398438 -0.16767578 1.44398438 0 0 Z " fill="#E0ACF0" transform="translate(1914,309)"/>
<path d="M0 0 C19.09511914 11.51769091 36.70929472 29.21565734 50 47 C50.46647949 47.60650391 50.93295898 48.21300781 51.41357422 48.83789062 C69.50135447 72.40836914 82.42037734 98.60764049 91 127 C91.55107422 128.80404297 91.55107422 128.80404297 92.11328125 130.64453125 C94.29057711 138.26927003 95.81000599 145.94607733 97.1875 153.75 C97.35459473 154.69641357 97.52168945 155.64282715 97.69384766 156.61791992 C99.54785963 167.58255821 100.16036544 178.43191311 100.31640625 189.54296875 C100.33718735 190.79257889 100.35796844 192.04218903 100.37937927 193.32966614 C100.43325093 196.61252258 100.48362615 199.89540685 100.53222656 203.17834473 C100.58294053 206.54407515 100.63836302 209.90972793 100.69335938 213.27539062 C100.79985624 219.8501981 100.9017348 226.42506462 101 233 C101.33 233 101.66 233 102 233 C102.17924091 250.68510292 101.62288614 268.32891902 101 286 C100.67 286 100.34 286 100 286 C99.32762248 272.60640137 98.89964542 259.21763634 98.71875 245.80859375 C98.70920288 245.10576893 98.69965576 244.40294411 98.68981934 243.67882156 C98.61215424 237.86562026 98.54285202 232.05232402 98.47393799 226.23901367 C98.7572404 192.87213778 98.7572404 192.87213778 95.25 159.8125 C95.0744458 158.82604492 94.8988916 157.83958984 94.71801758 156.82324219 C83.91383651 97.98419222 52.51599383 40.93066487 3.3125 5.625 C2.66925781 5.18414062 2.02601562 4.74328125 1.36328125 4.2890625 C0.91339844 3.86367188 0.46351562 3.43828125 0 3 C0 2.01 0 1.02 0 0 Z " fill="#DAAAF5" transform="translate(1633,45)"/>
<path d="M0 0 C0.99 0 1.98 0 3 0 C3.26103516 0.72888428 3.52207031 1.45776855 3.79101562 2.20874023 C17.3947936 40.02116776 35.31149227 71.61964605 63 101 C63.68964844 101.7321875 64.37929688 102.464375 65.08984375 103.21875 C70.33847045 108.62837752 76.08489905 113.34277662 82 118 C82.63115723 118.50225098 83.26231445 119.00450195 83.91259766 119.52197266 C93.5444636 127.16627419 103.32923533 133.9006011 114 140 C116.7322569 141.60234663 119.37129824 143.22964984 122 145 C122 145.66 122 146.32 122 147 C70.91197901 128.08573269 31.89466728 76.53353662 10 29 C8.12408567 24.7376377 6.51578012 20.40270485 5 16 C4.53618085 14.72701443 4.06989772 13.45492478 3.6015625 12.18359375 C0 2.33924094 0 2.33924094 0 0 Z " fill="#A8EDF6" transform="translate(402,490)"/>
<path d="M0 0 C0.99 0.495 0.99 0.495 2 1 C-1.24905843 4.70145897 -4.94032945 6.76207267 -9.3125 8.875 C-10.01963135 9.22087158 -10.7267627 9.56674316 -11.45532227 9.9230957 C-27.77917347 17.79336171 -44.31663629 23.22009343 -62.1875 26.25 C-63.14841553 26.41322754 -64.10933105 26.57645508 -65.09936523 26.74462891 C-77.57944689 28.73069732 -90.0946882 29.14934557 -102.71289062 29.22119141 C-104.12392469 29.23244566 -105.53495578 29.24407936 -106.94598389 29.25605774 C-110.7305386 29.28699407 -114.51511032 29.31232257 -118.29971504 29.3362546 C-121.47114547 29.35685601 -124.64255211 29.38032829 -127.81396246 29.40379179 C-135.29261737 29.45909669 -142.77129323 29.50987712 -150.25 29.55761719 C-157.95167187 29.60684761 -165.65326862 29.66317471 -173.3548646 29.72303832 C-179.99125473 29.77440922 -186.62766507 29.82172674 -193.26410818 29.86572587 C-197.21786634 29.8919592 -201.17160011 29.91963863 -205.12532043 29.9510994 C-208.83541171 29.98041938 -212.54550238 30.00465287 -216.25565338 30.02499962 C-218.26064933 30.03722204 -220.26561205 30.05456352 -222.27056885 30.07206726 C-223.47022278 30.07766159 -224.66987671 30.08325592 -225.90588379 30.08901978 C-227.46317074 30.09951575 -227.46317074 30.09951575 -229.05191803 30.11022377 C-232.10957042 29.99590335 -234.99600176 29.56709389 -238 29 C-238 28.67 -238 28.34 -238 28 C-229.68759181 27.84877665 -221.37506302 27.70492839 -213.0625 27.5625 C-211.75499786 27.5397702 -210.44749573 27.51704041 -209.10037231 27.49362183 C-191.67704975 27.19227595 -174.25415238 26.96053772 -156.82886696 26.80774117 C-153.83558396 26.78124687 -150.84231379 26.75360092 -147.8490448 26.72557068 C-145.85110481 26.70693227 -143.85316474 26.68830128 -141.85522461 26.66967773 C-140.86709369 26.6604425 -139.87896276 26.65120726 -138.86088848 26.64169216 C-132.96781128 26.58750903 -127.0747382 26.54166794 -121.18154907 26.50161934 C-117.43476698 26.47425874 -113.68808044 26.43927834 -109.94137955 26.40255737 C-108.20741457 26.38716335 -106.4734182 26.37488484 -104.73940659 26.36621094 C-87.81201224 26.27894538 -71.02473414 25.15843287 -54.5 21.3125 C-53.36199951 21.05194824 -52.22399902 20.79139648 -51.05151367 20.52294922 C-33.9432547 16.4702029 -17.09190755 10.71467056 -2.18359375 1.203125 C-1.10271484 0.60757812 -1.10271484 0.60757812 0 0 Z " fill="#DBA7F3" transform="translate(1822,451)"/>
<path d="M0 0 C0 0.99 0 1.98 0 3 C-35.12872966 19.4184544 -67.63959666 24.52463509 -106.05978394 24.26589966 C-109.597323 24.24449489 -113.13485853 24.23461867 -116.6724453 24.22460938 C-147.11977494 24.13595202 -177.56075651 23.7050983 -208 23 C-208 22.67 -208 22.34 -208 22 C-207.06409436 21.99503478 -207.06409436 21.99503478 -206.10928154 21.98996925 C-190.82142259 21.90821369 -175.53366452 21.81595758 -160.24593925 21.71247292 C-152.8524564 21.66267024 -145.45898287 21.61622823 -138.06542969 21.578125 C-131.60991872 21.54484704 -125.15448793 21.50482872 -118.69906628 21.45720994 C-115.29123275 21.4322942 -111.88344995 21.41041725 -108.47555161 21.39665604 C-72.0184171 21.23319719 -37.70532043 17.82324782 -4.6328125 1.25 C-2 0 -2 0 0 0 Z " fill="#EBB1E7" transform="translate(1817,458)"/>
<path d="M0 0 C1.04065109 -0.00131927 2.08130219 -0.00263855 3.15348816 -0.0039978 C6.56719916 -0.0059172 9.9808285 0.00044629 13.39453125 0.0078125 C14.56356995 0.00869873 15.73260864 0.00958496 16.93707275 0.01049805 C43.69956538 0.03410173 70.45210672 0.53061007 97.20703125 1.1328125 C97.20703125 1.4628125 97.20703125 1.7928125 97.20703125 2.1328125 C85.20064017 2.92869102 73.24686235 3.27713103 61.21519279 3.30147743 C58.32939423 3.30882936 55.44374839 3.32462454 52.55799866 3.34281921 C44.36656799 3.39443327 36.1752324 3.44313101 27.98364258 3.45874023 C-7.11525434 3.53584306 -37.73284963 6.76263548 -70.79296875 19.1328125 C-70.5078125 17.24414062 -70.5078125 17.24414062 -69.79296875 15.1328125 C-67.10445275 13.73967239 -64.62056544 12.65891663 -61.79296875 11.6328125 C-60.98496826 11.33020508 -60.17696777 11.02759766 -59.34448242 10.71582031 C-51.30572113 7.79604833 -43.15991441 5.83730107 -34.79296875 4.1328125 C-33.43213763 3.84317068 -32.07145834 3.55281454 -30.7109375 3.26171875 C-20.38607756 1.09815059 -10.54607274 -0.02171709 0 0 Z " fill="#A6E1F8" transform="translate(394.79296875,179.8671875)"/>
<path d="M0 0 C0.66 0 1.32 0 2 0 C4.76037515 18.0251717 5.52637008 35.7842044 5.6875 54 C5.7207798 56.6367345 5.75527866 59.27345391 5.79101562 61.91015625 C5.87467042 68.27333289 5.94350886 74.63652711 6 81 C6.33 81 6.66 81 7 81 C7.17924091 98.68510292 6.62288614 116.32891902 6 134 C5.67 134 5.34 134 5 134 C4.32762248 120.60640137 3.89964542 107.21763634 3.71875 93.80859375 C3.70920288 93.10576893 3.69965576 92.40294411 3.68981934 91.67882156 C3.61215424 85.86562026 3.54285202 80.05232402 3.47393799 74.23901367 C3.22538288 52.03622041 3.22538288 52.03622041 2.53515625 29.84375 C2.47992798 28.47814186 2.47992798 28.47814186 2.42358398 27.08494568 C2.16058031 21.42877696 1.50945683 15.95617791 0.41015625 10.39453125 C-0.1907095 6.88661976 -0.13651891 3.54949175 0 0 Z " fill="#DBAEF7" transform="translate(1728,197)"/>
<path d="M0 0 C5.61226148 0.6193712 11.01024265 1.5650579 16.5 2.875 C17.20769531 3.03613281 17.91539063 3.19726562 18.64453125 3.36328125 C22.95970283 4.38093597 27.01405041 5.70778474 31.14257812 7.31738281 C33.71433174 8.26252255 36.32594074 8.85254954 39 9.4375 C44.16087682 10.66877518 48.37474887 12.42053303 53 15 C53 15.66 53 16.32 53 17 C53.76441406 17.2165625 54.52882813 17.433125 55.31640625 17.65625 C60.41818935 19.51734585 65.12971268 21.98640134 69.9375 24.5 C70.95207275 25.02883789 71.96664551 25.55767578 73.01196289 26.10253906 C81.3977726 30.54290602 89.28305922 35.48964102 97 41 C96.67 41.99 96.34 42.98 96 44 C95.16082031 43.41734375 94.32164063 42.8346875 93.45703125 42.234375 C74.50890987 29.24866744 54.78390323 18.40202397 33 11 C32.02208496 10.66186279 32.02208496 10.66186279 31.02441406 10.31689453 C20.77824451 6.77793664 10.51652711 3.63688733 0 1 C0 0.67 0 0.34 0 0 Z " fill="#DDA6F0" transform="translate(1536,3)"/>
<path d="M0 0 C3 3 3 3 3.36749268 5.51315308 C3.36384705 6.51540924 3.36020142 7.51766541 3.35644531 8.55029297 C3.35944641 9.68933075 3.36244751 10.82836853 3.36553955 12.00192261 C3.35319275 13.23621002 3.34084595 14.47049744 3.328125 15.7421875 C3.32531525 17.65392258 3.32531525 17.65392258 3.32244873 19.60427856 C3.31571521 22.30972774 3.30342151 25.01443113 3.28125 27.71972656 C3.2532511 31.14979339 3.24206638 34.57962402 3.2375679 38.00979424 C3.232345 41.31646033 3.21780354 44.62304902 3.203125 47.9296875 C3.19887512 49.1437326 3.19462524 50.35777771 3.19024658 51.60861206 C3.1259369 59.44394496 2.70297529 67.19620384 2 75 C1.67 75 1.34 75 1 75 C0.67 50.25 0.34 25.5 0 0 Z " fill="#ECB8EA" transform="translate(1732,216)"/>
<path d="M0 0 C0 0.33 0 0.66 0 1 C-52.52032695 2.9815014 -52.52032695 2.9815014 -70 1 C-70 0.67 -70 0.34 -70 0 C-46.65027615 -1.66996748 -23.36761388 -1.03040024 0 0 Z " fill="#94D3F9" transform="translate(544,182)"/>
<path d="M0 0 C5.58350259 0.53003341 9.89062017 2.0478973 14.9375 4.4375 C19.5755283 6.61930769 23.97338182 8.35651123 28.97485352 9.5012207 C32.56065783 10.38437902 36.01503622 11.66193339 39.5 12.875 C47.8957165 15.7440208 56.36059851 17.9990487 65 20 C65 20.33 65 20.66 65 21 C51.79472405 20.45092408 39.64323468 16.32105188 27.25 12.0625 C26.30415039 11.73886475 25.35830078 11.41522949 24.38378906 11.08178711 C18.60635571 9.05526137 13.04189188 6.74711668 7.49902344 4.14624023 C5.02781024 3.01275587 2.53202815 1.98905578 0 1 C0 0.67 0 0.34 0 0 Z " fill="#8DEAF2" transform="translate(524,637)"/>
<path d="M0 0 C0.90737411 0.00960754 1.81474823 0.01921509 2.74961853 0.02911377 C5.75812361 0.06217671 8.76648676 0.10248123 11.77490234 0.14282227 C13.85712173 0.16711625 15.93934642 0.19096017 18.02157593 0.21437073 C23.5092572 0.27728342 28.99684504 0.34632969 34.48443604 0.41662598 C40.08121475 0.4872446 45.67805986 0.55210026 51.27490234 0.61743164 C62.26195448 0.74653658 73.24891655 0.88211715 84.23583984 1.02172852 C84.23583984 1.35172852 84.23583984 1.68172852 84.23583984 2.02172852 C37.21083984 2.51672852 37.21083984 2.51672852 -10.76416016 3.02172852 C-10.76416016 2.36172852 -10.76416016 1.70172852 -10.76416016 1.02172852 C-7.42245076 -0.64912618 -3.67040783 -0.05509694 0 0 Z " fill="#B7E2FA" transform="translate(389.76416015625,180.978271484375)"/>
<path d="M0 0 C1.21671386 2.88432755 0.97984975 4.05976897 -0.0390625 7.08203125 C-0.56282678 8.32758484 -1.09187017 9.57092626 -1.625 10.8125 C-5.81643166 21.20263158 -7.83956232 32.04461695 -10 43 C-10.37982969 44.89851329 -10.76001863 46.79695476 -11.140625 48.6953125 C-11.42720813 50.13018341 -11.71371594 51.56506939 -12 53 C-12.33 53 -12.66 53 -13 53 C-12.42378763 35.0797952 -7.64497151 17.93491454 -2 1 C-1.34 0.67 -0.68 0.34 0 0 Z " fill="#A4D1FB" transform="translate(226,300)"/>
<path d="M0 0 C8.03686216 3.11104342 15.75907998 6.78967199 23.375 10.8125 C24.61020386 11.4629126 24.61020386 11.4629126 25.87036133 12.12646484 C32.12397578 15.45509075 38.13465298 19.01947236 44 23 C43.67 23.66 43.34 24.32 43 25 C39.19118523 23.61122638 36.02061552 21.82982432 32.625 19.625 C22.14935342 13.06412792 11.04971533 7.52485767 0 2 C0 1.34 0 0.68 0 0 Z " fill="#FBAED4" transform="translate(1589,18)"/>
<path d="M0 0 C0.33 0 0.66 0 1 0 C1.33 1.65 1.66 3.3 2 5 C2.33 5 2.66 5 3 5 C3.17924091 22.68510292 2.62288614 40.32891902 2 58 C1.67 58 1.34 58 1 58 C-0.06720478 38.65975172 -0.11212479 19.36136413 0 0 Z " fill="#D38AE9" transform="translate(1732,273)"/>
<path d="M0 0 C5.61226148 0.6193712 11.01024265 1.5650579 16.5 2.875 C17.20769531 3.03613281 17.91539063 3.19726562 18.64453125 3.36328125 C22.95737947 4.38038805 27.01160881 5.70477067 31.13818359 7.31298828 C33.73250189 8.27029377 36.36765774 8.89066824 39.0625 9.5 C43.65667016 10.60050464 47.74185613 11.96770406 52 14 C48.77139714 15.05821346 46.81675233 14.92259887 43.578125 13.9609375 C42.72524902 13.71255127 41.87237305 13.46416504 40.99365234 13.20825195 C40.08824707 12.93327881 39.1828418 12.65830566 38.25 12.375 C37.31494629 12.09938232 36.37989258 11.82376465 35.41650391 11.53979492 C29.06828537 9.65785844 22.74364003 7.69897764 16.43261719 5.69604492 C10.99508935 3.97472663 5.51853213 2.43809206 0 1 C0 0.67 0 0.34 0 0 Z " fill="#F190CE" transform="translate(1536,3)"/>
<path d="M0 0 C0.66 0.33 1.32 0.66 2 1 C0.76354018 12.41454127 -0.62038174 23.69505351 -3.5625 34.8125 C-3.77221436 35.61147705 -3.98192871 36.4104541 -4.19799805 37.23364258 C-5.725487 42.725487 -5.725487 42.725487 -8 45 C-8.66 45 -9.32 45 -10 45 C-9.84144531 44.42636719 -9.68289063 43.85273438 -9.51953125 43.26171875 C-9.00628711 41.3930564 -8.49779382 39.52308713 -7.9921875 37.65234375 C-7.25897178 34.95330163 -6.51247631 32.25941889 -5.7578125 29.56640625 C-3.04210306 19.73129794 -1.01772552 10.16206531 0 0 Z " fill="#CF84EB" transform="translate(1914,309)"/>
<path d="M0 0 C1.94824219 0.82055664 1.94824219 0.82055664 4 2 C6.30480511 9.99071584 6.30366488 18.73356724 6 27 C5.34 26.67 4.68 26.34 4 26 C3.40576172 23.49975586 3.40576172 23.49975586 2.9296875 20.21484375 C2.75566406 19.04501953 2.58164063 17.87519531 2.40234375 16.66992188 C2.22832031 15.43822266 2.05429688 14.20652344 1.875 12.9375 C1.69324219 11.70193359 1.51148438 10.46636719 1.32421875 9.19335938 C0.87476624 6.12998566 0.43375296 3.06562952 0 0 Z " fill="#EDADE3" transform="translate(1728,190)"/>
<path d="M0 0 C6.15735333 3.25759775 12.22330055 6.65183899 18.1875 10.25 C19.84845703 11.24773438 19.84845703 11.24773438 21.54296875 12.265625 C22.35378906 12.83796875 23.16460938 13.4103125 24 14 C24 14.66 24 15.32 24 16 C19.33751086 14.31784705 15.16580137 11.94630388 10.875 9.5 C10.15957031 9.09652344 9.44414062 8.69304688 8.70703125 8.27734375 C5.73359942 6.59332535 2.84591726 4.89727817 0 3 C0 2.01 0 1.02 0 0 Z " fill="#9DF2F3" transform="translate(500,621)"/>
<path d="M0 0 C0.33 0 0.66 0 1 0 C1.66 9.9 2.32 19.8 3 30 C2.01 29.67 1.02 29.34 0 29 C-0.86948699 23.02227698 -1.10969217 17.15564834 -1.125 11.125 C-1.12951172 10.37549072 -1.13402344 9.62598145 -1.13867188 8.85375977 C-1.12995026 5.64093616 -1.02303927 3.06911782 0 0 Z " fill="#9FC6FD" transform="translate(397,425)"/>
<path d="M0 0 C1.47788408 1.94622763 2.05671359 3.40762342 1.82226562 5.85644531 C1.35909314 8.1314396 0.82188799 10.37486559 0.25 12.625 C-0.13615939 14.23940586 -0.52158081 15.85398842 -0.90625 17.46875 C-1.09574219 18.24605469 -1.28523437 19.02335937 -1.48046875 19.82421875 C-2.44381717 23.85869298 -3.21196266 27.92847375 -4 32 C-4.33 32 -4.66 32 -5 32 C-4.6443896 20.94051671 -2.61149265 10.71319311 0 0 Z " fill="#76B7FA" transform="translate(218,321)"/>
<path d="M0 0 C-0.99 0.495 -0.99 0.495 -2 1 C-2 1.66 -2 2.32 -2 3 C-4.31 3 -6.62 3 -9 3 C-9.33 2.34 -9.66 1.68 -10 1 C-6.61981469 -0.04005702 -3.5219721 -0.08004482 0 0 Z " fill="#97DDF7" transform="translate(381,181)"/>
<path d="M0 0 C0.75 1.75 0.75 1.75 1 4 C-0.9375 6.25 -0.9375 6.25 -3 8 C-4 6 -4 6 -3.1875 3.4375 C-2 1 -2 1 0 0 Z " fill="#99CAFB" transform="translate(226,300)"/>
</svg>
