<?xml version="1.0" standalone="no"?>
<!DOCTYPE svg PUBLIC "-//W3C//DTD SVG 20010904//EN"
 "http://www.w3.org/TR/2001/REC-SVG-20010904/DTD/svg10.dtd">
<svg version="1.0" xmlns="http://www.w3.org/2000/svg"
 width="2129.000000pt" height="1529.000000pt" viewBox="0 0 2129.000000 1529.000000"
 preserveAspectRatio="xMidYMid meet">

<g transform="translate(0.000000,1529.000000) scale(0.100000,-0.100000)"
fill="#000000" stroke="none">
<path d="M15670 15284 c-105 -7 -338 -34 -430 -50 -562 -102 -1116 -368 -1555
-748 -107 -92 -5265 -5248 -5265 -5262 0 -13 113 -115 210 -191 205 -159 451
-269 735 -330 119 -25 148 -27 340 -27 189 0 223 3 336 27 178 38 292 77 454
157 252 126 244 119 1145 1017 l815 813 560 -561 c308 -308 603 -598 655 -644
532 -466 1189 -744 1905 -806 169 -14 507 -7 681 15 847 108 1580 509 2136
1166 384 454 647 1045 732 1645 33 228 49 625 26 625 -7 0 -8 17 -4 48 3 26 1
92 -5 147 -70 611 -283 1156 -637 1628 -560 748 -1395 1223 -2315 1317 -110
11 -423 19 -519 14z m-147 -59 c250 -57 565 -191 772 -330 493 -330 844 -828
990 -1405 59 -233 60 -249 59 -845 -1 -565 -12 -834 -40 -965 -122 -583 -577
-1036 -1164 -1159 l-95 -20 100 0 c55 0 368 4 695 9 633 9 686 13 890 65 689
175 1216 718 1386 1429 25 107 24 58 -2 -74 -41 -201 -171 -497 -301 -680 -96
-136 -321 -357 -453 -446 -200 -135 -382 -219 -596 -274 -198 -51 -304 -60
-727 -60 -478 0 -1210 17 -1342 30 -246 26 -468 107 -686 251 -80 53 -178 146
-679 646 l-585 583 575 573 c619 617 656 649 862 754 550 279 1226 181 1677
-243 244 -229 396 -511 455 -839 18 -100 18 -104 6 413 -10 452 -23 587 -75
805 -200 840 -861 1523 -1705 1761 -69 19 -134 37 -145 39 -17 4 -17 5 -2 6
10 0 69 -10 130 -24z"/>
<path d="M2749 13903 c-145 -195 -329 -541 -414 -778 -136 -378 -193 -690
-200 -1095 l-4 -225 14 90 c69 420 245 768 535 1055 123 123 222 200 364 284
l103 62 -24 34 c-100 144 -231 388 -293 545 -18 44 -33 81 -35 83 -2 2 -23
-23 -46 -55z"/>
<path d="M8095 13863 c-167 -423 -479 -841 -850 -1137 -91 -74 -227 -171 -248
-179 -7 -3 115 -132 270 -288 l281 -284 640 646 641 646 -348 347 -347 347
-39 -98z"/>
<path d="M4470 13445 c-723 -14 -740 -15 -971 -81 -458 -131 -841 -426 -1095
-844 -168 -277 -281 -659 -257 -870 l8 -75 893 -3 892 -2 0 127 c1 194 17 458
35 553 37 200 132 425 251 592 70 98 221 253 318 325 192 143 406 236 641 278
l70 13 -60 0 c-33 -1 -359 -7 -725 -13z"/>
<path d="M6920 11357 c-442 -441 -562 -555 -635 -604 -170 -115 -353 -193
-548 -235 -137 -29 -436 -32 -570 -5 -603 121 -1061 574 -1187 1173 l-19 89 0
-55 c0 -30 4 -232 9 -448 13 -514 32 -648 136 -962 77 -235 218 -500 373 -700
87 -112 274 -304 386 -395 279 -227 606 -389 979 -486 103 -26 137 -23 381 36
415 101 805 282 1155 535 l90 65 0 1268 c0 697 -1 1267 -2 1267 -2 0 -248
-245 -548 -543z"/>
<path d="M10 3645 l0 -1725 395 0 395 0 0 1725 0 1725 -395 0 -395 0 0 -1725z"/>
<path d="M1480 3645 l0 -1725 390 0 390 0 0 1045 c0 575 3 1045 8 1044 4 0
392 -470 862 -1044 l855 -1044 328 -1 327 0 0 1725 0 1725 -390 0 -390 0 0
-1041 c0 -730 -3 -1040 -11 -1037 -5 2 -392 469 -858 1038 l-847 1035 -332 3
-332 2 0 -1725z"/>
<path d="M7420 5055 l0 -315 250 0 250 0 0 315 0 315 -250 0 -250 0 0 -315z"/>
<path d="M8320 3645 l0 -1725 400 0 400 0 0 1725 0 1725 -400 0 -400 0 0
-1725z"/>
<path d="M9790 3645 l0 -1725 395 0 395 0 0 1046 c0 849 2 1044 13 1036 7 -6
395 -477 862 -1046 l850 -1036 328 0 327 0 0 1725 0 1725 -395 0 -395 0 -2
-1042 -3 -1042 -853 1042 -853 1042 -335 0 -334 0 0 -1725z"/>
<path d="M13640 3645 l0 -1725 395 0 395 0 0 1725 0 1725 -395 0 -395 0 0
-1725z"/>
<path d="M14720 5050 l0 -320 550 0 550 0 0 -1405 0 -1405 400 0 400 0 2 1403
3 1402 548 3 547 2 0 320 0 320 -1500 0 -1500 0 0 -320z"/>
<path d="M17828 5338 c11 -18 311 -516 666 -1106 l646 -1073 0 -619 0 -620
400 0 400 0 0 613 0 612 108 180 c60 99 361 600 670 1113 l561 932 -392 0
-392 0 -455 -760 c-250 -417 -459 -758 -465 -756 -5 1 -214 343 -464 759
l-455 757 -424 0 -424 0 20 -32z"/>
<path d="M7420 3695 l0 -365 145 0 145 0 0 365 0 365 -145 0 -145 0 0 -365z"/>
<path d="M4921 1275 c-133 -30 -242 -109 -291 -210 -29 -58 -39 -176 -21 -241
35 -130 173 -220 429 -280 253 -59 317 -95 317 -179 0 -85 -74 -125 -229 -125
-146 0 -264 36 -362 110 l-51 39 -87 -94 -87 -94 43 -32 c120 -87 280 -144
443 -158 238 -20 411 30 519 150 56 62 76 123 76 229 0 66 -4 86 -31 139 -54
108 -161 166 -432 237 -195 51 -245 71 -270 113 -28 48 -22 88 21 131 29 29
50 40 95 50 110 22 261 -11 367 -81 33 -23 63 -39 66 -37 2 3 36 47 74 98 52
70 67 96 59 106 -19 23 -193 103 -259 119 -93 23 -309 28 -389 10z"/>
<path d="M10381 1275 c-218 -48 -402 -219 -471 -440 -29 -91 -32 -260 -7 -354
46 -170 181 -334 337 -408 112 -53 164 -65 290 -64 118 0 191 16 278 60 227
114 363 334 362 584 -1 288 -204 545 -486 617 -90 23 -209 25 -303 5z m292
-255 c75 -28 176 -121 212 -194 98 -201 14 -442 -189 -541 -82 -40 -212 -47
-300 -16 -270 95 -357 437 -164 647 115 124 282 164 441 104z"/>
<path d="M7250 1140 l0 -120 213 -2 212 -3 3 -487 2 -488 120 0 120 0 0 490 0
490 215 0 215 0 0 120 0 120 -550 0 -550 0 0 -120z"/>
<path d="M12830 651 l0 -611 125 0 125 0 0 490 0 490 224 0 c244 0 272 -5 324
-54 46 -42 62 -77 62 -131 0 -60 -19 -103 -63 -142 -46 -40 -107 -53 -252 -53
l-115 0 0 -88 0 -87 213 -213 212 -212 175 0 175 0 -193 193 -193 193 53 25
c68 31 156 119 190 191 16 31 32 88 38 126 27 193 -69 370 -247 455 l-68 32
-392 3 -393 3 0 -610z"/>
<path d="M15640 1140 l0 -120 550 0 550 0 0 120 0 120 -550 0 -550 0 0 -120z"/>
<path d="M15640 405 l0 -365 550 0 550 0 0 120 0 120 -430 0 -431 0 3 123 3
122 368 3 367 2 0 120 0 120 -490 0 -490 0 0 -365z"/>
</g>
</svg>
